<svg width="32" height="32" viewBox="0 0 32 32" fill="none" xmlns="http://www.w3.org/2000/svg">
<path d="M6.00033 16.1667C5.06699 16.1667 4.2781 15.8445 3.63366 15.2001C2.98921 14.5556 2.66699 13.7667 2.66699 12.8334C2.66699 11.9001 2.98921 11.1112 3.63366 10.4667C4.2781 9.8223 5.06699 9.50008 6.00033 9.50008C6.93366 9.50008 7.72255 9.8223 8.36699 10.4667C9.01144 11.1112 9.33366 11.9001 9.33366 12.8334C9.33366 13.7667 9.01144 14.5556 8.36699 15.2001C7.72255 15.8445 6.93366 16.1667 6.00033 16.1667ZM12.0003 10.8334C11.067 10.8334 10.2781 10.5112 9.63366 9.86675C8.98921 9.2223 8.66699 8.43341 8.66699 7.50008C8.66699 6.56675 8.98921 5.77786 9.63366 5.13341C10.2781 4.48897 11.067 4.16675 12.0003 4.16675C12.9337 4.16675 13.7225 4.48897 14.367 5.13341C15.0114 5.77786 15.3337 6.56675 15.3337 7.50008C15.3337 8.43341 15.0114 9.2223 14.367 9.86675C13.7225 10.5112 12.9337 10.8334 12.0003 10.8334ZM20.0003 10.8334C19.067 10.8334 18.2781 10.5112 17.6337 9.86675C16.9892 9.2223 16.667 8.43341 16.667 7.50008C16.667 6.56675 16.9892 5.77786 17.6337 5.13341C18.2781 4.48897 19.067 4.16675 20.0003 4.16675C20.9337 4.16675 21.7225 4.48897 22.367 5.13341C23.0114 5.77786 23.3337 6.56675 23.3337 7.50008C23.3337 8.43341 23.0114 9.2223 22.367 9.86675C21.7225 10.5112 20.9337 10.8334 20.0003 10.8334ZM26.0003 16.1667C25.067 16.1667 24.2781 15.8445 23.6337 15.2001C22.9892 14.5556 22.667 13.7667 22.667 12.8334C22.667 11.9001 22.9892 11.1112 23.6337 10.4667C24.2781 9.8223 25.067 9.50008 26.0003 9.50008C26.9337 9.50008 27.7225 9.8223 28.367 10.4667C29.0114 11.1112 29.3337 11.9001 29.3337 12.8334C29.3337 13.7667 29.0114 14.5556 28.367 15.2001C27.7225 15.8445 26.9337 16.1667 26.0003 16.1667ZM8.86699 29.5001C7.86699 29.5001 7.02788 29.1165 6.34966 28.3494C5.67144 27.5823 5.33277 26.6774 5.33366 25.6347C5.33366 24.4792 5.72833 23.4681 6.51766 22.6014C7.30699 21.7347 8.0901 20.8792 8.86699 20.0347C9.51144 19.3459 10.067 18.5961 10.5337 17.7854C11.0003 16.9747 11.5559 16.2134 12.2003 15.5014C12.6892 14.9236 13.2559 14.4459 13.9003 14.0681C14.5448 13.6903 15.2448 13.501 16.0003 13.5001C16.7559 13.5001 17.4559 13.6779 18.1003 14.0334C18.7448 14.389 19.3114 14.8556 19.8003 15.4334C20.4225 16.1445 20.9728 16.9112 21.451 17.7334C21.9292 18.5556 22.4901 19.3223 23.1337 20.0334C23.9114 20.8779 24.6945 21.7334 25.483 22.6001C26.2714 23.4667 26.6661 24.4779 26.667 25.6334C26.667 26.6779 26.3279 27.5836 25.6497 28.3507C24.9714 29.1179 24.1328 29.501 23.1337 29.5001C21.9337 29.5001 20.7448 29.4001 19.567 29.2001C18.3892 29.0001 17.2003 28.9001 16.0003 28.9001C14.8003 28.9001 13.6114 29.0001 12.4337 29.2001C11.2559 29.4001 10.067 29.5001 8.86699 29.5001Z" stroke="#4E4B66" stroke-width="2"/>
</svg>
