<svg width="32" height="32" viewBox="0 0 32 32" fill="none" xmlns="http://www.w3.org/2000/svg">
<g clip-path="url(#clip0_518_10975)">
<path d="M32 0H0V32H32V0Z" fill="white" fill-opacity="0.01"/>
<path d="M9.33301 9.06659C9.33301 8.10932 8.43761 7.33325 7.33301 7.33325C6.22844 7.33325 5.33301 8.10932 5.33301 9.06659V22.9333C5.33301 23.8905 6.22844 24.6666 7.33301 24.6666C8.43761 24.6666 9.33301 23.8905 9.33301 22.9333V9.06659Z" stroke="#4E4B66" stroke-width="2" stroke-linejoin="round"/>
<path d="M26.667 9.06659C26.667 8.10932 25.7716 7.33325 24.667 7.33325C23.5624 7.33325 22.667 8.10932 22.667 9.06659V22.9333C22.667 23.8905 23.5624 24.6666 24.667 24.6666C25.7716 24.6666 26.667 23.8905 26.667 22.9333V9.06659Z" stroke="#4E4B66" stroke-width="2" stroke-linejoin="round"/>
<path d="M5.33301 12.4445C5.33301 11.4627 4.43757 10.6667 3.33301 10.6667C2.22844 10.6667 1.33301 11.4627 1.33301 12.4445V19.5556C1.33301 20.5375 2.22844 21.3334 3.33301 21.3334C4.43757 21.3334 5.33301 20.5375 5.33301 19.5556V12.4445Z" stroke="#4E4B66" stroke-width="2" stroke-linejoin="round"/>
<path d="M30.667 12.4445C30.667 11.4627 29.7716 10.6667 28.667 10.6667C27.5624 10.6667 26.667 11.4627 26.667 12.4445V19.5556C26.667 20.5375 27.5624 21.3334 28.667 21.3334C29.7716 21.3334 30.667 20.5375 30.667 19.5556V12.4445Z" stroke="#4E4B66" stroke-width="2" stroke-linejoin="round"/>
<path d="M22.6663 18H9.33301V14H22.6663V18Z" stroke="#4E4B66" stroke-width="2" stroke-linejoin="round"/>
</g>
<defs>
<clipPath id="clip0_518_10975">
<rect width="32" height="32" fill="white"/>
</clipPath>
</defs>
</svg>
