<svg width="32" height="32" viewBox="0 0 32 32" fill="none" xmlns="http://www.w3.org/2000/svg">
<path d="M3.33301 16V26.6667C3.33301 27.0203 3.47348 27.3594 3.72353 27.6095C3.97358 27.8595 4.31272 28 4.66634 28H27.333C27.6866 28 28.0258 27.8595 28.2758 27.6095C28.5259 27.3594 28.6663 27.0203 28.6663 26.6667V16M28.6663 20.6667H3.33301" stroke="#4E4B66" stroke-width="2" stroke-linecap="round" stroke-linejoin="round"/>
<path d="M21.3327 15.3333C21.3327 13.9188 20.7708 12.5623 19.7706 11.5621C18.7704 10.5619 17.4138 10 15.9993 10C14.5849 10 13.2283 10.5619 12.2281 11.5621C11.2279 12.5623 10.666 13.9188 10.666 15.3333" stroke="#4E4B66" stroke-width="2" stroke-linecap="round"/>
<path d="M16 4V5.33333M23.6093 6.66667L22.6667 7.60933M8 6.66667L8.94267 7.60933" stroke="#4E4B66" stroke-width="2" stroke-linecap="round" stroke-linejoin="round"/>
</svg>
