<svg width="32" height="32" viewBox="0 0 32 32" fill="none" xmlns="http://www.w3.org/2000/svg">
<path d="M25.1336 21.3333L24.0003 20.1999V17.3333H26.0003V21.3333H25.1336ZM22.6669 18.8666L21.1336 17.3333H22.6669V18.8666ZM27.3336 21.3333V17.3333H29.3336V21.3333H27.3336ZM25.4669 29.1999L17.6003 21.3333H4.66693C4.11137 21.3333 3.63893 21.1386 3.24959 20.7493C2.86026 20.3599 2.66604 19.8879 2.66693 19.3333C2.66693 18.7777 2.86159 18.3053 3.25093 17.9159C3.64026 17.5266 4.11226 17.3324 4.66693 17.3333H13.6003L2.80026 6.53328C2.55582 6.28884 2.43359 5.97772 2.43359 5.59995C2.43359 5.22217 2.55582 4.91106 2.80026 4.66661C3.0447 4.42217 3.35582 4.29995 3.73359 4.29995C4.11137 4.29995 4.42248 4.42217 4.66693 4.66661L27.3336 27.3333C27.578 27.5777 27.7003 27.8888 27.7003 28.2666C27.7003 28.6444 27.578 28.9555 27.3336 29.1999C27.0891 29.4444 26.778 29.5666 26.4003 29.5666C26.0225 29.5666 25.7114 29.4444 25.4669 29.1999ZM25.0003 15.9999C24.7114 15.9999 24.4727 15.9053 24.2843 15.7159C24.0958 15.5266 24.0011 15.2879 24.0003 14.9999V14.2666C24.0003 13.3999 23.7447 12.7386 23.2336 12.2826C22.7225 11.8266 22.1114 11.5991 21.4003 11.5999H19.3336C18.0892 11.5999 17.0336 11.1666 16.1669 10.2999C15.3003 9.43328 14.8669 8.37772 14.8669 7.13328C14.8669 6.08883 15.1838 5.16661 15.8176 4.36661C16.4514 3.56661 17.2456 3.04439 18.2003 2.79995C18.4891 2.71106 18.7505 2.77239 18.9843 2.98395C19.218 3.1955 19.3345 3.47861 19.3336 3.83328C19.3336 4.03328 19.2558 4.22217 19.1003 4.39995C18.9447 4.57772 18.7447 4.71106 18.5003 4.79995C18.0336 4.97772 17.6447 5.27195 17.3336 5.68261C17.0225 6.09328 16.8669 6.57683 16.8669 7.13328C16.8669 7.84439 17.1114 8.43328 17.6003 8.89995C18.0891 9.36661 18.6669 9.59995 19.3336 9.59995H21.4003C22.6447 9.59995 23.7225 9.99995 24.6336 10.7999C25.5447 11.5999 26.0003 12.5999 26.0003 13.7999V14.9999C26.0003 15.2888 25.9056 15.5279 25.7163 15.7173C25.5269 15.9066 25.2883 16.0008 25.0003 15.9999ZM28.3336 15.9999C28.0447 15.9999 27.806 15.9053 27.6176 15.7159C27.4291 15.5266 27.3345 15.2879 27.3336 14.9999V12.9999C27.3336 11.6666 26.9114 10.4999 26.0669 9.49995C25.2225 8.49995 24.1558 7.88883 22.8669 7.66661C22.6225 7.62217 22.4167 7.50528 22.2496 7.31595C22.0825 7.12661 21.9994 6.88795 22.0003 6.59995C22.0003 6.33328 22.0669 6.09995 22.2003 5.89995C22.3336 5.69995 22.5558 5.54439 22.8669 5.43328C23.2225 5.29995 23.5283 5.09995 23.7843 4.83328C24.0403 4.56661 24.2234 4.2555 24.3336 3.89995C24.4225 3.6555 24.5505 3.46661 24.7176 3.33328C24.8847 3.19995 25.0678 3.13328 25.2669 3.13328C25.6225 3.13328 25.906 3.2555 26.1176 3.49995C26.3291 3.74439 26.39 4.02217 26.3003 4.33328C26.1891 4.71106 26.0336 5.06661 25.8336 5.39995C25.6336 5.73328 25.4003 6.04439 25.1336 6.33328C26.378 6.91106 27.3891 7.79995 28.1669 8.99995C28.9447 10.1999 29.3336 11.5333 29.3336 12.9999V14.9999C29.3336 15.2888 29.2389 15.5275 29.0496 15.7159C28.8603 15.9044 28.6216 15.9991 28.3336 15.9999Z" fill="#4E4B66"/>
</svg>
